<?xml version="1.0" standalone="no"?>
<!DOCTYPE svg PUBLIC "-//W3C//DTD SVG 20010904//EN"
 "http://www.w3.org/TR/2001/REC-SVG-20010904/DTD/svg10.dtd">
<svg version="1.0" xmlns="http://www.w3.org/2000/svg"
 width="500.000000pt" height="500.000000pt" viewBox="0 0 500.000000 500.000000"
 preserveAspectRatio="xMidYMid meet">
<metadata>
Created by potrace 1.11, written by Peter Selinger 2001-2013
</metadata>
<g transform="translate(0.000000,500.000000) scale(0.100000,-0.100000)"
fill="#000000" stroke="none">
<path d="M3716 3478 c-14 -18 -44 -58 -65 -88 -22 -30 -44 -59 -48 -65 -5 -5
-49 -66 -98 -135 -49 -69 -95 -131 -102 -138 -7 -8 -18 -23 -24 -35 -7 -11
-16 -26 -21 -31 -18 -22 -150 -201 -158 -217 -10 -17 -31 -17 -310 -9 -36 1
-71 1 -79 1 -17 -1 17 -28 84 -66 28 -16 52 -32 55 -35 3 -3 34 -23 70 -43 36
-21 94 -55 129 -77 34 -22 65 -40 68 -40 2 0 11 -7 19 -15 24 -24 53 -18 65
13 10 23 78 175 179 397 15 33 57 125 92 205 36 80 92 202 124 272 31 71 55
130 52 133 -3 3 -17 -9 -32 -27z"/>
<path d="M3205 3218 c11 -6 23 -16 27 -22 5 -7 8 -8 8 0 0 15 -22 34 -39 34
-12 -1 -11 -4 4 -12z"/>
<path d="M1150 2765 l0 -65 95 0 95 0 0 -295 0 -295 75 0 75 0 0 295 0 295 95
0 95 0 0 65 0 65 -265 0 -265 0 0 -65z"/>
<path d="M1765 2636 c-37 -8 -50 -16 -49 -29 0 -9 1 -32 2 -49 l2 -33 116 3
c129 4 144 -2 144 -53 l0 -32 -87 -7 c-161 -12 -218 -62 -210 -183 5 -71 23
-105 70 -133 40 -25 137 -27 203 -4 44 15 50 15 81 0 19 -9 54 -16 78 -16 l45
0 0 51 c0 38 -5 55 -17 65 -16 11 -19 35 -23 176 -6 184 -13 209 -72 239 -30
15 -57 19 -135 18 -54 0 -120 -6 -148 -13z m215 -350 c0 -59 1 -58 -72 -71
-55 -9 -78 7 -78 54 0 54 21 67 108 70 l42 1 0 -54z"/>
<path d="M2269 2627 c-78 -42 -109 -135 -71 -219 23 -53 58 -72 169 -94 87
-16 114 -34 97 -62 -10 -15 -28 -17 -135 -16 -76 0 -127 -4 -131 -10 -4 -6 -8
-32 -8 -57 l0 -47 63 -11 c82 -14 205 -14 248 0 71 24 109 82 109 166 0 92
-50 136 -185 163 -79 16 -97 26 -93 53 4 29 46 36 159 26 51 -5 94 -8 95 -6 1
1 4 27 5 57 l3 55 -54 12 c-30 6 -94 12 -141 12 -72 1 -93 -3 -130 -22z"/>
<path d="M3588 2621 l-68 -29 0 24 c0 23 -3 24 -70 24 l-69 0 -3 -232 c-2
-128 -2 -248 0 -265 l3 -33 70 0 69 0 0 179 0 179 85 23 85 22 0 69 c0 81 -2
82 -102 39z"/>
<path d="M2620 2633 c0 -5 29 -123 63 -263 l62 -255 52 -3 51 -3 -29 -107
c-16 -59 -29 -109 -29 -112 0 -3 31 -4 70 -2 l70 4 9 36 c6 20 41 162 79 315
l70 278 -37 23 c-51 32 -82 48 -86 44 -3 -3 -85 -345 -85 -354 0 -2 -6 -4 -14
-4 -7 0 -16 15 -20 33 -3 17 -25 110 -47 205 l-41 172 -69 0 c-38 0 -69 -3
-69 -7z"/>
<path d="M3150 2301 l0 -191 70 0 70 0 0 149 0 149 -35 21 c-19 12 -51 30 -70
42 l-35 21 0 -191z"/>
</g>
</svg>
